/* XPM */
static char *_a1e8db311824caefe883ff9aea7cd4d7G78lwQeYKhFthA4[] = {
/* columns rows colors chars-per-pixel */
"60 60 2 1 ",
"  c #B4E0BE",
". c #9AD5C6",
/* pixels */
".................................................           ",
".................................................           ",
".................................................           ",
".................................................           ",
".................................................           ",
"............................................................",
"............................................................",
"..........................           .......................",
"..........................           .......................",
"..........................           .......................",
"..........................           .......................",
"..........................           .......................",
"............................................................",
"............................................................",
"............................................................",
"............................................................",
"............................................................",
"............................................................",
"............................................................",
"           .............................................    ",
"           .............................................    ",
"           .............................................    ",
"           .............................................    ",
"           .............................................    ",
"............................................................",
"............................................................",
"............................................................",
"............................................................",
"............................................................",
"............................................................",
"..................................               ...........",
"..................................               ...........",
"..................................               ...........",
"..................................               ...........",
"..................................               ...........",
"............................................................",
"............................................................",
"...............       ......................................",
"...............       ......................................",
"...............       ......................................",
"...............       ......................................",
"...............       ......................................",
"............................................................",
"............................................................",
"............................................................",
"..................................................          ",
"..................................................          ",
"..................................................          ",
"...........................          .............          ",
"...........................          .............          ",
"...........................          .......................",
"...........................          .......................",
"...........................          .......................",
"............................................................",
"............................................................",
"............................................................",
"............................................................",
"............................................................",
"............................................................",
"............................................................"
};
