/* XPM */
static char *c0c78f592be649f3f12ff2ca74e5ceedHbeJ6HL204SL1ZJ7[] = {
/* columns rows colors chars-per-pixel */
"60 60 6 1 ",
"  c None",
". c #8F645E",
"X c #B68963",
"o c #C59A6C",
"O c #DDBC8A",
"+ c #E8CFA5",
/* pixels */
"                           .......                          ",
"                           .......                          ",
"                           .......                          ",
"                           .......                          ",
"                        ...oooo...                          ",
"                        ...oooo...                          ",
"                        ...oooo...                          ",
"        ...................oooo.....................        ",
"        ...................oooo.....................        ",
"        ...................oooo.....................        ",
"        ...................oooo.....................        ",
"    ....OOOO++++oooooooo..........oooooooooooooooooo....    ",
"    ....OOOO++++oooooooo..........oooooooooooooooooo....    ",
"    ....OOOO++++oooooooo..........oooooooooooooooooo....    ",
"    ....OOOO++++oooooooo..........oooooooooooooooooo....    ",
"....OOOOOOOOOOOO++++oooo...oooo...oooooooooooooooooooooo....",
"....OOOOOOOOOOOO++++oooo...oooo...oooooooooooooooooooooo....",
"....OOOOOOOOOOOO++++oooo...oooo...oooooooooooooooooooooo....",
"....OOOOOOOOOOOO++++oooo...oooo...oooooooooooooooooooooo....",
"....OOOO...................oooo.....................XXXX....",
"....OOOO...................oooo.....................XXXX....",
"....OOOO...................oooo.....................XXXX....",
"....OOOO...................oooo.....................XXXX....",
"........OOOO++++oooooooo...oooo...oooooooooooooooooo........",
"........OOOO++++oooooooo...oooo...oooooooooooooooooo........",
"........OOOO++++oooooooo...oooo...oooooooooooooooooo........",
"........OOOO++++oooooooo...oooo...oooooooooooooooooo........",
"....OOOOOOOOOOOO++++ooooooo.......oooooooooooooooooooooo....",
"....OOOOOOOOOOOO++++ooooooo.......oooooooooooooooooooooo....",
"....OOOOOOOOOOOO++++ooooooo.......oooooooooooooooooooooo....",
"....OOOOOOOOOOOO++++ooooooo.......ooooooooooooooooooXXXX....",
"....OOOOOOOOOOOO++++oooo...oooo...ooooooooooooooooooXXXX....",
"....OOOOOOOOOOOO++++oooo...oooo...ooooooooooooooooooXXXX....",
"....OOOOOOOOOOOO++++oooo...oooo...ooooooooooooooooooXXXX....",
"....OOOO...................oooo.....................XXXX....",
"....OOOO...................oooo.....................XXXX....",
"....OOOO...................oooo.....................XXXX....",
"....OOOO...................oooo.....................XXXX....",
"........OOOO++++OOOOOOOO...oooo...oooooooooooooooooo........",
"........OOOO++++OOOOOOOO...oooo...oooooooooooooooooo........",
"........OOOO++++OOOOOOOO...oooo...oooooooooooooooooo........",
"........OOOO++++OOOOOOOOoooooooooooooooooooooooooooo........",
"....OOOOOOOOOOOO++++OOOOoooooooooooooooooooooooooooooooo....",
"....OOOOOOOOOOOO++++OOOOoooooooooooooooooooooooooooooooo....",
"....OOOOOOOOOOOO++++OOOOoooooooooooooooooooooooooooooooo....",
"....OOOOOOOOOOOO++++XXXXooooooooooooooooooooooooooooXXXX....",
"....OOOOOOOOOOOO++++XXXXooooooooooooooooooooooooooooXXXX....",
"....OOOOOOOOOOOO++++XXXXooooooooooooooooooooooooooooXXXX....",
"....OOOOOOOOOOOO++++XXXXXXXXXXXXXXXXooooooooXXXXXXXXXXXX....",
"....OOOOOOOOOOOO++++XXXXXXXXXXXXXXXXooooooooXXXXXXXXXXXX....",
"....OOOOOOOOOOOO++++XXXXXXXXXXXXXXXXooooooooXXXXXXXXXXXX....",
"....OOOOOOOOOOOO++++XXXXXXXXXXXXXXXXooooooooXXXXXXXXXXXX....",
"....OOOOOOOOOOOO++++XXXXooooooooooooooooooooooooXXXXXXXX....",
"....OOOOOOOOOOOO++++XXXXooooooooooooooooooooooooXXXXXXXX....",
"....OOOOOOOOOOOO++++XXXXooooooooooooooooooooooooXXXXXXXX....",
"....OOOOOOOOOOOO++++XXXXooooooooooooooooooooooooXXXXXXXX....",
"    ....OOOO++++XXXXXXXXXXXXXXXXXXXXXXXXXXXXXXXXXXXX....    ",
"    ....OOOO++++XXXXXXXXXXXXXXXXXXXXXXXXXXXXXXXXXXXX....    ",
"    ....OOOO++++XXXXXXXXXXXXXXXXXXXXXXXXXXXXXXXXXXXX....    ",
"    ....OOOO++++XXXXXXXXXXXXXXXXXXXXXXXXXXXXXXXXXXXX....    "
};
