/* XPM */
static char *f2471c8ffaec4daf91e7fd8f4e026c33IbQd5ug9N8aOl3nz[] = {
/* columns rows colors chars-per-pixel */
"60 60 8 1 ",
"  c None",
". c #754C61",
"X c #90625D",
"o c #C49A6D",
"O c #D5C268",
"+ c #C57F84",
"@ c #E9D3A6",
"# c #EFF9BD",
/* pixels */
"                             XXXXXXXXXXXXX                  ",
"                             XXXXXXXXXXXXX                  ",
"                             XXXXXXXXXXXXX                  ",
"                             XXXXXXXXXXXXX                  ",
"                      XXXXXXX+++++++++++++XXXXXXX           ",
"                      XXXXXXX+++++++++++++XXXXXXX           ",
"                      XXXXXXX+++++++++++++XXXXXXX           ",
"                      XXXXXXX+++++++++++++XXXXXXX           ",
"                      XXXXXXX+++++++++++++XXXXXXX           ",
"                      XXXXXXX+++++++++++++XXXXXXX           ",
"                      XXXXXXX+++++++++++++XXXXXXX           ",
"               XXXXXXX###########################XXXXXXX    ",
"               XXXXXXX###########################XXXXXXX    ",
"               XXXXXXX###########################XXXXXXX    ",
"               XXXXXXX###########################XXXXXXX    ",
"               XXXXXXX###########################XXXXXXX    ",
"               XXXXXXX###########################XXXXXXX    ",
"               XXXXXXX###########################XXXXXXX    ",
"           XXXX##############......########......#######XXXX",
"           XXXX##############......########......#######XXXX",
"           XXXX##############......########......#######XXXX",
"           XXXX##############......########......#######XXXX",
"           XXXX##############......########......#######XXXX",
"           XXXX##############......########......#######XXXX",
"           XXXX######################OOOOOOOOOOOO#######XXXX",
"    XXXXXXX##########################OOOOOOOOOOOO#######XXXX",
"    XXXXXXX##########################OOOOOOOOOOOO#######XXXX",
"    XXXXXXX##########################OOOOOOOOOOOO#######XXXX",
"    XXXXXXX##########################OOOOOOOOOOOO#######XXXX",
"    XXXXXXX##########################OOOOOOOOOOOO#######XXXX",
"    XXXXXXX#############################################XXXX",
"    XXXXXXX#############################################XXXX",
"XXXX####################################################XXXX",
"XXXX####################################################XXXX",
"XXXX####################################################XXXX",
"XXXX######################oooooooo######################XXXX",
"XXXX######################oooooooo######################XXXX",
"XXXX@@@@@@@###############oooooooo###############@@@@@@@XXXX",
"XXXX@@@@@@@###############oooooooo###############@@@@@@@XXXX",
"XXXX@@@@@@@###############oooooooo###############@@@@@@@XXXX",
"XXXX@@@@@@@###############oooooooo###############@@@@@@@XXXX",
"XXXX@@@@@@@###############oooooooo###############@@@@@@@XXXX",
"    XXXXXXXooooooooooooooo@@@@@@@@@@@@@@@@@@@@@@@XXXXXXX    ",
"    XXXXXXXooooooooooooooo@@@@@@@@@@@@@@@@@@@@@@@XXXXXXX    ",
"    XXXXXXXooooooooooooooo@@@@@@@@@@@@@@@@@@@@@@@XXXXXXX    ",
"    XXXXXXXooooooooooooooo@@@@@@@@@@@@@@@@@@@@@@@XXXXXXX    ",
"    XXXXXXXooooooooooooooo@@@@@@@@@@@@@@@@@@@@@@@XXXXXXX    ",
"    XXXXXXXooooooooooooooo@@@@@@@@@@@@@@@@@@@@@@@XXXXXXX    ",
"    XXXXXXXooooooooooooooo@@@@@@@@@@@@@@@@@@@@@@@XXXXXXX    ",
"           XXXXXXXOOOOOOOOXXXXXXXXOOOOOOOOXXXXXXX           ",
"           XXXXXXXOOOOOOOOXXXXXXXXOOOOOOOOXXXXXXX           ",
"           XXXXXXXOOOOOOOOXXXXXXXXOOOOOOOOXXXXXXX           ",
"           XXXXXXXOOOOOOOOXXXXXXXXOOOOOOOOXXXXXXX           ",
"           XXXXXXXOOOOOOOOXXXXXXXXOOOOOOOOXXXXXXX           ",
"           XXXXXXXOOOOOOOOXXXXXXXXOOOOOOOOXXXXXXX           ",
"           XXXXXXXOOOOOOOOXXXXXXXXOOOOOOOOXXXXXXX           ",
"                  XXXXXXXX        XXXXXXXX                  ",
"                  XXXXXXXX        XXXXXXXX                  ",
"                  XXXXXXXX        XXXXXXXX                  ",
"                  XXXXXXXX        XXXXXXXX                  "
};
