/* XPM */
static char *_c65e99c163c4dedd3966c53d61425b70l8L2UeF3O7V5iFX[] = {
/* columns rows colors chars-per-pixel */
"52 60 5 1 ",
"  c None",
". c #5C4E91",
"X c #756DA8",
"o c #DDD5DE",
"O c #F3F1C2",
/* pixels */
"       ..........                  ..........       ",
"       ..........                  ..........       ",
"       ..........                  ..........       ",
"       ..........                  ..........       ",
"   ....OOOOOOOOOO....          ....OOOOOOOOOO....   ",
"   ....OOOOOOOOOO....          ....OOOOOOOOOO....   ",
"   ....OOOOOOOOOO....          ....OOOOOOOOOO....   ",
"   ....OOOOOOOOOO..................OOOOOOOOOO....   ",
"   ....OOOOOOOOOO..................OOOOOOOOOO....   ",
"   ....OOOOOOOOOO..................OOOOOOOOOO....   ",
"   ....OOOOOOOOOO..................OOOOOOOOOO....   ",
"   ....OOOOOOOOOOooooooooooooooooooOOOOOOOOOO....   ",
"   ....OOOOOOOOOOooooooooooooooooooOOOOOOOOOO....   ",
"   ....OOOOOOOOOOooooooooooooooooooOOOOOOOOOO....   ",
"   ....OOOOOOOOOOooooooooooooooooooOOOOOOOOOO....   ",
"   ....OOOOOOOOOOOOOOOOOOOOOOOOOOOOOOOOOOOOOO....   ",
"   ....OOOOOOOOOOOOOOOOOOOOOOOOOOOOOOOOOOOOOO....   ",
"   ....OOOOOOOOOOOOOOOOOOOOOOOOOOOOOOOOOOOOOO....   ",
"   ....OOOOOOOOOOOOOOOOOOOOOOOOOOOOOOOOOOOOOO....   ",
"   ....OOOOOOOOOOOOOOOOOOOOOOOOOOOOOOOOOOOOOO....   ",
"   ....OOOOOOOOOOOOOOOOOOOOOOOOOOOOOOOOOOOOOO....   ",
"   ....OOOOOOOOOOOOOOOOOOOOOOOOOOOOOOOOOOOOOO....   ",
"   ....OOOOOOOOOOOOOOOOOOOOOOOOOOOOOOOOOOOOOO....   ",
".......OOOOOOOOOOOOOOOOOOOOOOOOOOOOOOOOOOOOOO.......",
".......OOOOOOOOOOOOOOOOOOOOOOOOOOOOOOOOOOOOOO.......",
".......OOOOOOOOOOOOOOOOOOOOOOOOOOOOOOOOOOOOOO.......",
".......OOOOOOOOOOOOOOOOOOOOOOOOOOOOOOOOOOOOOO.......",
"   ....OOOOOOOOOOOOOOOOOOOOOOOOOOOOOOOOOOOOOO....   ",
"   ....OOOOOOOOOOOOOOOOOOOOOOOOOOOOOOOOOOOOOO....   ",
"   ....OOOOOOOOOOOOOOOOOOOOOOOOOOOOOOOOOOOOOO....   ",
".......OOOOOOOOOOOOOOOOOOOOOOOOOOOOOOOOOOOOOO....   ",
".......OOOOOOOOOOOOOOOOOOOOOOOOOOOOOOOOOOOOOO.......",
".......OOOOOOOOOOOOOOOOOOOOOOOOOOOOOOOOOOOOOO.......",
".......OOOOOOOOOOOOOOOOOOOOOOOOOOOOOOOOOOOOOO.......",
"   ....OOOOOOOOOOOOOOOOOOOOOOOOOOOOOOOOOOOOOO.......",
"   ....OOOOOOOOOOOOOOOOOOOOOOOOOOOOOOOOOOOOOO....   ",
"   ....OOOOOOOOOOOOOOOOOOOOOOOOOOOOOOOOOOOOOO....   ",
"       .......XXXXXXXXXXXXXXXXXXXXXXXX.......       ",
"       .......XXXXXXXXXXXXXXXXXXXXXXXX.......       ",
"       .......XXXXXXXXXXXXXXXXXXXXXXXX.......       ",
"       .......XXXXXXXXXXXXXXXXXXXXXXXX.......       ",
"   ....ooooOOOXXXXXXXX........XXXXXXXXOOOoooo....   ",
"   ....ooooOOOXXXXXXXX........XXXXXXXXOOOoooo....   ",
"   ....ooooOOOXXXXXXXX........XXXXXXXXOOOoooo....   ",
"   ....ooooOOOXXXXXXXX........XXXXXXXXOOOoooo....   ",
"   ....ooooOOOOOO.....OOOOOOOO.....OOOOOOoooo....   ",
"   ....ooooOOOOOO.....OOOOOOOO.....OOOOOOoooo....   ",
"   ....ooooOOOOOO.....OOOOOOOO.....OOOOOOoooo....   ",
"   ....ooooOOOOOOOOOOOOOOOOOOOOOOOOOOOOOOoooo....   ",
"       ........OOOOOOOOOOOOOOOOOOOOOO........       ",
"       ........OOOOOOOOOOOOOOOOOOOOOO........       ",
"       ........OOOOOOOOOOOOOOOOOOOOOO........       ",
"           ....OOOOOOOOOOOOOOOOOOOOOO........       ",
"           ....ooooooo........ooooooo....           ",
"           ....ooooooo........ooooooo....           ",
"           ....ooooooo........ooooooo....           ",
"           ....ooooooo........ooooooo....           ",
"               .......        .......               ",
"               .......        .......               ",
"               .......        .......               "
};
