/* XPM */
static char *ca0b80fff03141a0ab167209e3cdf9f7Y15pRjZnOayPjvie[] = {
/* columns rows colors chars-per-pixel */
"53 60 8 1 ",
"  c none",
". c #EBE177",
"X c #5C4E92",
"o c #766DAB",
"O c #E8B4AB",
"+ c #F2F3BE",
"@ c #DDD5DF",
"# c #F2D8C6",
/* pixels */
"        XXXXXXXXXXXX             XXXXXXXXXXXX        ",
"        XXXXXXXXXXXX             XXXXXXXXXXXX        ",
"        XXXXXXXXXXXX             XXXXXXXXXXXX        ",
"        XXXXXXXXXXXX             XXXXXXXXXXXX        ",
"    XXXX++++++++++++XXXX     XXXX++++++++++++XXXX    ",
"    XXXX++++++++++++XXXX     XXXX++++++++++++XXXX    ",
"    XXXX++++++++++++XXXX     XXXX++++++++++++XXXX    ",
"    XXXX++++++++++++XXXXXXXXXXXXX++++++++++++XXXX    ",
"    XXXXOOOOOOO+++++XXXXXXXXXXXXX+++++OOOOOOOXXXX    ",
"    XXXXOOOOOOO+++++XXXXXXXXXXXXX+++++OOOOOOOXXXX    ",
"    XXXXOOOOOOO+++++XXXXXXXXXXXXX+++++OOOOOOOXXXX    ",
"    XXXXOOOOOOO+++++@@@@@@@@@@@@@+++++OOOOOOOXXXX    ",
"    XXXXOOOOOOO+++++@@@@@@@@@@@@@+++++OOOOOOOXXXX    ",
"    XXXXOOOOOOO+++++@@@@@@@@@@@@@+++++OOOOOOOXXXX    ",
"    XXXXOOOOOOO+++++@@@@@@@@@@@@@+++++OOOOOOOXXXX    ",
"    XXXX++++++++++++@@@@@@@@@@@@@++++++++++++XXXX    ",
"    XXXX++++++++++++@@@@@@@@@@@@@++++++++++++XXXX    ",
"    XXXX++++++++++++@@@@@@@@@@@@@++++++++++++XXXX    ",
"    XXXX++++++++++++@@@@@@@@@@@@@++++++++++++XXXX    ",
"    XXXX++++++++++++@@@@@@@@@@@@@++++++++++++XXXX    ",
"    XXXX++++++++++++@@@@@@@@@@@@@++++++++++++XXXX    ",
"    XXXX++++++++++++@@@@@@@@@@@@@++++++++++++XXXX    ",
"XXXXXXXX+++++++++++++++++++++++++++++++++++++XXXXXXXX",
"XXXXXXXX+++++++++++++++++++++++++++++++++++++XXXXXXXX",
"XXXXXXXX+++++++++++++++++++++++++++++++++++++XXXXXXXX",
"XXXXXXXX+++++++++++++++++++++++++++++++++++++XXXXXXXX",
"    XXXX+++XXXX+++++++++++++++++++++++XXXX+++XXXX    ",
"    XXXX+++XXXX+++++++++++++++++++++++XXXX+++XXXX    ",
"    XXXX+++XXXX+++++++++++++++++++++++XXXX+++XXXX    ",
"    XXXX+++XXXX+++++++++++++++++++++++XXXX+++XXXX    ",
"XXXXXXXX+++++++++++++++++++++++++++++++++++++XXXXXXXX",
"XXXXXXXX+++++++++++++++++++++++++++++++++++++XXXXXXXX",
"XXXXXXXX+++++++++++++++++++++++++++++++++++++XXXXXXXX",
"XXXXXXXX########+++++++++++++++++++++########XXXXXXXX",
"    XXXX########+++++++++++++++++++++########XXXX    ",
"    XXXX########+++++++++++++++++++++########XXXX    ",
"    XXXX########+++++++++++++++++++++########XXXX    ",
"        XXXXXXXXoooooooooooooooooooooXXXXXXXX        ",
"        XXXXXXXXoooooooooooooooooooooXXXXXXXX        ",
"        XXXXXXXXoooooooooooooooooooooXXXXXXXX        ",
"        XXXXXXXXoooooooooooooooooooooXXXXXXXX        ",
"    XXXX@@@@++++oooooo.....++++oooooo++++@@@@XXXX    ",
"    XXXX@@@@++++oooooo.....++++oooooo++++@@@@XXXX    ",
"    XXXX@@@@++++oooooo.....++++oooooo++++@@@@XXXX    ",
"    XXXX@@@@++++oooooo.....++++oooooo++++@@@@XXXX    ",
"    XXXX@@@@++++++++++.........++++++++++@@@@XXXX    ",
"    XXXX@@@@++++++++++.........++++++++++@@@@XXXX    ",
"    XXXX@@@@++++++++++.........++++++++++@@@@XXXX    ",
"        XXXXXXXX++++++.........++++++XXXXXXXX        ",
"        XXXXXXXX+++++++++++++++++++++XXXXXXXX        ",
"        XXXXXXXX+++++++++++++++++++++XXXXXXXX        ",
"        XXXXXXXX+++++++++++++++++++++XXXXXXXX        ",
"            XXXX@@@@@@XXXXXXXXX@@@@@@XXXX            ",
"            XXXX@@@@@@XXXXXXXXX@@@@@@XXXX            ",
"            XXXX@@@@@@XXXXXXXXX@@@@@@XXXX            ",
"            XXXX@@@@@@XXXXXXXXX@@@@@@XXXX            ",
"                XXXXXX         XXXXXX                ",
"                XXXXXX         XXXXXX                ",
"                XXXXXX         XXXXXX                ",
"                XXXXXX         XXXXXX                "
};
