/* XPM */
static char *d052d155e082460d820e267c24153816ohJV1JvJUKNVozon[] = {
/* columns rows colors chars-per-pixel */
"52 60 10 1 ",
"  c None",
". c #EAE176",
"X c #5D4F92",
"o c #756CAA",
"O c #E9B5AC",
"+ c #DDD4DE",
"@ c #F3D8C6",
"# c #F3F0C1",
"$ c #F3F2C1",
"% c #F4F4C1",
/* pixels */
"                  XXXXXXXXXXXX                      ",
"                  XXXXXXXXXXXX                      ",
"                  XXXXXXXXXXXX                      ",
"                  XXXXXXXXXXXX                      ",
"               XXX%%%%%%%%%%%%XXX                   ",
"               XXX%%%%%%%%%%%%XXX                   ",
"               XXX%%%%%%%%%%%%XXX                   ",
"               XXX%%%%%%%%%%%%XXX                   ",
"            XXX%%%OOOOOOOO%%%%XXXXXXX               ",
"            XXX%%%OOOOOOOO%%%%XXXXXXX               ",
"            XXX%%%OOOOOOOO%%%%XXXXXXX               ",
"            XXX%%%OOOOOOOO%%%%%%%%%%%XXX            ",
"            XXX%%%OOOOOOOO%%%%%%%%%%%XXX            ",
"            XXX%%%OOOOOOOO%%%%%%%%%%%XXX            ",
"            XXX%%%OOOOOOOO%%%%%%%%%%%XXX            ",
"            XXX%%%%%%%%%%%%%%%%%%%%%%XXX            ",
"            XXX%%%%%%%%%%%%%%%%%%%%%%XXX            ",
"            XXX%%%%%%%%%%%%%%%%%%%%%%XXX            ",
"            XXX%%%%%%%%%%%%%%%%%%%%%%XXX            ",
"            XXX%%%%%%%%%%%%%%%%%%%%%%XXX            ",
"            XXX%%%%%%%%%%%%%%%%%%%%%%XXX            ",
"            XXX%%%%%%%%%%%%%%%%%%%%%%XXX            ",
"            XXX%%%%%%%%%%%%%%%%%%%%%%XXX            ",
"            XXX%%%%%%%%%%%%%%%%%%%%%%XXX            ",
"         XXXXXX%%%%%%%%%%%%%%%%%%%%%%XXXXXX         ",
"         XXXXXX%%%%%%%%%%%%%%%%%%%%%%XXXXXX         ",
"         XXXXXX%%%%%%%%%%%%%%%%%%%%%%XXXXXX         ",
"            XXX%%%%%%%%%%%%%%XXXX%%%%%%%XXX         ",
"            XXX%%%%%%%%%%%%%%XXXX%%%%%%%XXX         ",
"            XXX%%%%%%%%%%%%%%XXXX%%%%%%%XXX         ",
"            XXX%%%%%%%%%%%%%%XXXX%%%%%%%XXX         ",
"         XXXXXX%%%%%%%%%%%%%%%%%%%%%%%%%XXX         ",
"         XXXXXX%%%%%%%%%%%%%%%%%%%%%%%%%XXX         ",
"         XXXXXX%%%%%%%%%%%%%%%%%%%%%%%%%XXX         ",
"            XXX%%%%%%%$$$$$$$%%%%%%%%%%%XXX         ",
"            XXX%%%%%%@@@@@@@@%%%%%%%%%%%XXX         ",
"            XXX%%%%%%@@@@@@@@%%%%%%%%%%%XXX         ",
"            XXX%%%%%%@@@@@@@@%%%%%%%%%%%XXX         ",
"               XXXXoooooooooooooooooXXXX            ",
"               XXXXoooooooooooooooooXXXX            ",
"               XXXXoooooooooooooooooXXXX            ",
"               XXXXoooooooooooooooooXXXX            ",
"            XXX++++%%%%ooooooooooooo....            ",
"            XXX++++%%%%ooooooooooooo....            ",
"            XXX++++%%%%ooooooooooooo....            ",
"            XXX++++%%%%%%%%%%%%%%XXX....            ",
"            XXX++++%%%%%%%%%%%%%%XXX....            ",
"            XXX++++%%%%%%%%%%%%%%XXX....            ",
"            XXX++++%%%%%%%%%%%%%%XXX....            ",
"               XXXX%%%%%%%%%%%%%%XXX                ",
"               XXXX%%%%%%%%%%%%%%XXX                ",
"               XXXX%%%%%%%%%%%%%%XXX                ",
"               XXXX%%%%%%%%%%%%%%XXX                ",
"                   XXXX++++++XXXX                   ",
"                   XXXX++++++XXXX                   ",
"                   XXXX++++++XXXX                   ",
"                   XXXX++++++XXXX                   ",
"                       XXXXXX                       ",
"                       XXXXXX                       ",
"                       XXXXXX                       "
};
