/* XPM */
static char *_98ce43f1a1a473890b7e9de5e2d0971GtEeAO4fOXqAuCbj[] = {
/* columns rows colors chars-per-pixel */
"60 60 7 1 ",
"  c None",
". c #734B5F",
"X c #90655F",
"o c #A97B5A",
"O c #C39767",
"+ c #DCBD8E",
"@ c #E7CEA4",
/* pixels */
"........                                            ........",
"........                                            ........",
"........                                            ........",
"........                                            ........",
"OOOOOOOO....                                    ....OOOOOOOO",
"OOOOOOOO....                                    ....OOOOOOOO",
"OOOOOOOO....                                    ....OOOOOOOO",
"OOOOOOOO....    ............................    ....OOOOOOOO",
"OOOOOOOO....    ............................    ....OOOOOOOO",
"OOOOOOOO....    ............................    ....OOOOOOOO",
"OOOOOOOO....    ............................    ....OOOOOOOO",
"OOOOOOOO........OOOOOOOOOOOOOOOOOOOOOOOOOOOO........OOOOOOOO",
"OOOOOOOO........OOOOOOOOOOOOOOOOOOOOOOOOOOOO........OOOOOOOO",
"OOOOOOOO........OOOOOOOOOOOOOOOOOOOOOOOOOOOO........OOOOOOOO",
"OOOOOOOO........OOOOOOOOOOOOOOOOOOOOOOOOOOOO........OOOOOOOO",
"++++++++....OOOOXXXXXXXXXXXXXXXXXXXXXXXXXXXXOOOO....++++++++",
"++++++++....OOOOXXXXXXXXXXXXXXXXXXXXXXXXXXXXOOOO....++++++++",
"++++++++....OOOOXXXXXXXXXXXXXXXXXXXXXXXXXXXXOOOO....++++++++",
"++++++++....OOOOXXXXXXXXXXXXXXXXXXXXXXXXXXXXOOOO....++++++++",
"oooooooo....XXXXXXXXXXXXXXXXXXXXXXXXXXXXXXXXXXXX....oooooooo",
"oooooooo....XXXXXXXXXXXXXXXXXXXXXXXXXXXXXXXXXXXX....oooooooo",
"oooooooo....XXXXXXXXXXXXXXXXXXXXXXXXXXXXXXXXXXXX....oooooooo",
"oooooooo....XXXXXXXXXXXXXXXXXXXXXXXXXXXXXXXXXXXX....oooooooo",
"oooooooo....XXXXXXXXooooXXXXXXXXXXXXooooXXXXXXXX....oooooooo",
"oooooooo....XXXXXXXXooooXXXXXXXXXXXXooooXXXXXXXX....oooooooo",
"oooooooo....XXXXXXXXooooXXXXXXXXXXXXooooXXXXXXXX....oooooooo",
"XXXXXXXX....XXXXXXXXooooXXXXXXXXXXXXooooXXXXXXXX....XXXXXXXX",
"XXXXXXXX....XXXXXXXXooooXXXXXXXXXXXXooooXXXXXXXX....XXXXXXXX",
"XXXXXXXX....XXXXXXXXooooXXXXXXXXXXXXooooXXXXXXXX....XXXXXXXX",
"XXXXXXXX....XXXXXXXXooooXXXXXXXXXXXXooooXXXXXXXX....XXXXXXXX",
"oooooooo....XXXXXXXXooooXXXXXXXXXXXXooooXXXXXXXX....oooooooo",
"oooooooo....XXXXXXXXooooXXXXXXXXXXXXooooXXXXXXXX....oooooooo",
"oooooooo....XXXXXXXXooooXXXXXXXXXXXXooooXXXXXXXX....oooooooo",
"oooooooo....XXXXXXXXooooXXXXXXXXXXXXooooXXXXXXXX....oooooooo",
"oooooooo....XXXXXXXXooooXXXXXXXXXXXXooooXXXXXXXX....oooooooo",
"oooooooo....XXXXXXXXooooXXXXXXXXXXXXooooXXXXXXXX....oooooooo",
"oooooooo....XXXXXXXXooooXXXXXXXXXXXXooooXXXXXXXX....oooooooo",
"oooooooo....XXXXXXXXooooXXXXXXXXXXXXooooXXXXXXXX....oooooooo",
"oooooooo....XXXXXXXXooooXXXXXXXXXXXX@@@@@@@@XXXX....oooooooo",
"oooooooo....XXXXXXXXooooXXXXXXXXXXXX@@@@@@@@XXXX....oooooooo",
"oooooooo....XXXXXXXXooooXXXXXXXXXXXX@@@@@@@@XXXX....oooooooo",
"XXXXXXXX....XXXXXXXXooooXXXXXXXXXXXX@@@@@@@@XXXX....XXXXXXXX",
"XXXXXXXX....XXXXXXXXooooXXXXXXXXXXXXooooXXXXXXXX....XXXXXXXX",
"XXXXXXXX....XXXXXXXXooooXXXXXXXXXXXXooooXXXXXXXX....XXXXXXXX",
"XXXXXXXX....XXXXXXXXooooXXXXXXXXXXXXooooXXXXXXXX....XXXXXXXX",
"oooooooo....XXXXXXXXooooXXXXXXXXXXXXooooXXXXXXXX....oooooooo",
"oooooooo....XXXXXXXXooooXXXXXXXXXXXXooooXXXXXXXX....oooooooo",
"oooooooo....XXXXXXXXooooXXXXXXXXXXXXooooXXXXXXXX....oooooooo",
"oooooooo....XXXXXXXXooooXXXXXXXXXXXXooooXXXXXXXX....oooooooo",
"oooooooo....XXXXXXXXooooXXXXXXXXXXXXooooXXXXXXXX....oooooooo",
"oooooooo....XXXXXXXXooooXXXXXXXXXXXXooooXXXXXXXX....oooooooo",
"oooooooo....XXXXXXXXooooXXXXXXXXXXXXooooXXXXXXXX....oooooooo",
"oooooooo....XXXXXXXXXXXXXXXXXXXXXXXXXXXXXXXXXXXX....oooooooo",
"oooooooo....XXXXXXXXXXXXXXXXXXXXXXXXXXXXXXXXXXXX....oooooooo",
"oooooooo....XXXXXXXXXXXXXXXXXXXXXXXXXXXXXXXXXXXX....oooooooo",
"oooooooo....XXXXXXXXXXXXXXXXXXXXXXXXXXXXXXXXXXXX....oooooooo",
"............................................................",
"............................................................",
"............................................................",
"............................................................"
};
