/* XPM */
static char *_a03c222df614387e281930887ae4c9cDttOwBYlC2aOMxbr[] = {
/* columns rows colors chars-per-pixel */
"60 60 12 1 ",
"  c None",
". c #331A25",
"X c #393939",
"o c #68354D",
"O c #494949",
"+ c #524D44",
"@ c #7D405D",
"# c #96615C",
"$ c #B27752",
"% c #CA9966",
"& c #AEA080",
"* c #E8D09E",
/* pixels */
"                                                            ",
"                                                            ",
"       ....++++++++++++++++++++++++++++++++++++++.....      ",
"       ....++++++++++++++++++++++++++++++++++++++.....      ",
"       ....++++++++++++++++++++++++++++++++++++++.....      ",
"       ....++++++++++++++++++++++++++++++++++++++.....      ",
"       ....++++++++++++++++++++++++++++++++++++++.....      ",
"       ....OOOOOOOOOOOOOOOOOOOOOOOOOOOOOOOOOOOOOO.....      ",
"       ....OOOOOOOOOOOOOOOOOOOOOOOOOOOOOOOOOOOOOO.....      ",
"       .....XXXXXXXXXXXXXXXXXXXXXXXXXXXXXXXXXXXX......      ",
"       .....XXXXXXXXXXXXXXXXXXXXXXXXXXXXXXXXXXXX......      ",
"       .....XXXXXXXXXXXXXXXXXXXXXXXXXXXXXXXXXXXX......      ",
"       .....OOOOOOOOOOOOOOOOOOOOOOOOOOOOOOOOOOOO......      ",
"       .....OOOOOOOOOOOOOOOOOOOOOOOOOOOOOOOOOOOO......      ",
"       .....OOOOOOOOOOOOOOOOOOOOOOOOOOOOOOOOOOOO......      ",
"       .....OOOOOOOOOOOOOOOOOOOOOOOOOOOOOOOOOOOO......      ",
"       ......XXXXXXXXXXXXXXXXXXXXXXXXXXXXXXXXXX.......      ",
"       ......XXXXXXXXXXXXXXXXXXXXXXXXXXXXXXXXXX.......      ",
"       ......XXXXXXXXXXXXXXXXXXXXXXXXXXXXXXXXXX.......      ",
"       ......OOOOOOOOOOOOOOOOOOOOOOOOOOOOOOOOOO.......      ",
"       ......OOOOOOOOOOOOOOOOOOOOOOOOOOOOOOOOOO.......      ",
"       ......OOOOOOOOOOOOOOOOOOOOOOOOOOOOOOOOOO.......      ",
"       ......OOOOOOOOOOOOOOOOOOOOOOOOOOOOOOOOOO.......      ",
"       .......XXXXXXXXXXXXXXXXXXXXXXXXXXXXXXXX........      ",
"       .......XXXXXXXXXXXXXXXXXXXXXXXXXXXXXXXX........      ",
"       .......XXXXXXXXXXXXXXXXXXXXXXXXXXXXXXXX........      ",
"       .......OOOOOOOOOOOOOOOOOOOOOOOOOOOOOOOO........      ",
"       .......OOOOOOOOOOOOOOOOOOOOOOOOOOOOOOOO........      ",
"       .......OOOOOOOOOOOOOOOOOOOOOOOOOOOOOOOO........      ",
"       .......OOOOOOOOOOOOOOOOOOOOOOOOOOOOOOOO........      ",
"       ........XXXXXXXXXXXXXXXXXXXXXXXXXXXXXX.........      ",
"       ........XXXXXXXXXXXXXXXXXXXXXXXXXXXXXX.........      ",
"       ........XXXXXXXXXXXXXXXXXXXXXXXXXXXXXX.........      ",
"       ........OOOOOOOOOOOOOOOOOOOOOOOOOOOOOO.........      ",
"       ........OOOOOOOOOOOOOOOOOOOOOOOOOOOOOO.........      ",
"       ........OOOOOOOOOOOOOOOOOOOOOOOOOOOOOO.........      ",
"       .........XXXXXXXXXXXXXXXXXXXXXXXXXXXX..........      ",
"       .........XXXXXXXXXXXXXXXXXXXXXXXXXXXX..........      ",
"       .........OOOOOOOOOOOOOOOOOOOOOOOOOOOO..........      ",
"       .........OOOOOOOOOOOOOOOOOOOOOOOOOOOO..........      ",
"       ..........XXXXXXXXXXXXXXXXXXXXXXXXXX...........      ",
"       ..........XXXXXXXXXXXXXXXXXXXXXXXXXX...........      ",
"       ..........OOOOOOOOOOOOOOOOOOOOOOOOOO...........      ",
"       ooooooooooooooooooooooooooooooooooooooooooooooo      ",
"       ooooooooooooooooooooooooooooooooooooooooooooooo      ",
"       ooooooooooooooooooooooooooooooooooooooooooooooo      ",
"       @@@@@@@@@@@@@@@@@@@@@@@@@@@@@@@@@@@@@@@@@@@@@@@      ",
"       @@%%%%@@@@@@@@@@@@@@@@@@@@@@@@@@@@@@@@@@@%%%%@@      ",
"       @@%%%%@@@@@@@@@@@@@@@@@@@@@@@@@@@@@@@@@@@%%%%@@      ",
"       @@%%%%@@@@@@@@@@@@@@@@@@@@@@@@@@@@@@@@@@@%%%%@@      ",
"       @@@@@@@###$$$###$$$###$$$###$$$###$$$###@@@@@@@      ",
"       @@@@@@@###$$$###$$$###$$$###$$$###$$$###@@@@@@@      ",
"       @@@@@@@###$$$###$$$###&&&###$$$###$$$###@@@@@@@      ",
"       @@@@@@@###$$$###$$$#**$$$**#$$$###$$$###@@@@@@@      ",
"       @@@@@@@###$$$###$$$#**$$$**#$$$###$$$###@@@@@@@      ",
"       @@@@@@@###$$$###$$$###***###$$$###$$$###@@@@@@@      ",
"       @@%%%%@@@@@@@@@@@@@@@@@@@@@@@@@@@@@@@@@@@%%%%@@      ",
"       @@%%%%@@@@@@@@@@@@@@@@@@@@@@@@@@@@@@@@@@@%%%%@@      ",
"                                                            ",
"                                                            "
};
