/* XPM */
static char *_c12224931e04ef1ccba2dd3e977bf0bNOk7s8u3qtmdiEni[] = {
/* columns rows colors chars-per-pixel */
"60 60 7 1 ",
"  c None",
". c #7C435D",
"X c #98615C",
"o c #B07A54",
"O c #C99760",
"+ c #AFA180",
"@ c #EAD19F",
/* pixels */
"                                                            ",
"                                                            ",
"       ...............................................      ",
"       ...............................................      ",
"       ..OOOO...................................OOOO..      ",
"       ..OOOO...................................OOOO..      ",
"       ..OOOO...................................OOOO..      ",
"       .......XXXoooXXXoooXXXoooXXXoooXXXoooXXX.......      ",
"       .......XXXoooXXXoooXXXoooXXXoooXXXoooXXX.......      ",
"       .......XXXoooXXXoooXXXoooXXXoooXXXoooXXX.......      ",
"       .......XXXoooXXXoooXXXoooXXXoooXXXoooXXX.......      ",
"       .......XXXoooXXXoooXXXoooXXXoooXXXoooXXX.......      ",
"       .......XXXoooXXXoooXXXoooXXXoooXXXoooXXX.......      ",
"       .......XXXoooXXXoooXXXoooXXXoooXXXoooXXX.......      ",
"       .......XXXoooXXXoooXXXoooXXXoooXXXoooXXX.......      ",
"       .......XXXoooXXXoooXXXoooXXXoooXXXoooXXX.......      ",
"       .......XXXoooXXXoooXXXoooXXXoooXXXoooXXX.......      ",
"       .......XXXoooXXXoooXXXoooXXXoooXXXoooXXX.......      ",
"       .......XXXoooXXXoooXXXoooXXXoooXXXoooXXX.......      ",
"       .......XXXoooXXXoooXXXoooXXXoooXXXoooXXX.......      ",
"       .......XXXoooXXXoooXXXoooXXXoooXXXoooXXX.......      ",
"       .......XXXoooXXXoooXXXoooXXXoooXXXoooXXX.......      ",
"       .......XXXoooXXXoooXXXoooXXXoooXXXoooXXX.......      ",
"       .......XXXoooXXXoooXXXoooXXXoooXXXoooXXX.......      ",
"       .......XXXoooXXXoooXXXoooXXXoooXXXoooXXX.......      ",
"       .......XXXoooXXXoooXXXoooXXXoooXXXoooXXX.......      ",
"       .......XXXoooXXXoooXXXoooXXXoooXXXoooXXX.......      ",
"       .......XXXoooXXXoooXXXoooXXXoooXXXoooXXX.......      ",
"       .......XXXoooXXXoooXXXoooXXXoooXXXoooXXX.......      ",
"       .......XXXoooXXXoooXXXoooXXXoooXXXoooXXX.......      ",
"       .......XXXoooXXXoooXXX+++XXXoooXXXoooXXX.......      ",
"       .......XXXoooXXXoooXXX+++XXXoooXXXoooXXX.......      ",
"       .......XXXoooXXXoooXXX@@@XXXoooXXXoooXXX.......      ",
"       .......XXXoooXXXoooXXX@@@XXXoooXXXoooXXX.......      ",
"       .......XXXoooXXXooo@@@ooo@@@oooXXXoooXXX.......      ",
"       .......XXXoooXXXooo@@@ooo@@@oooXXXoooXXX.......      ",
"       .......XXXoooXXXo@@XXXoooXXX@@oXXXoooXXX.......      ",
"       .......XXXoooXXXo@@XXXoooXXX@@oXXXoooXXX.......      ",
"       .......XXXoooXXXo@@XXXoooXXX@@oXXXoooXXX.......      ",
"       .......XXXoooXXXo@@XXXoooXXX@@oXXXoooXXX.......      ",
"       .......XXXoooXXXo@@XXXoooXXX@@oXXXoooXXX.......      ",
"       .......XXXoooXXXooo@@@ooo@@@oooXXXoooXXX.......      ",
"       .......XXXoooXXXooo@@@ooo@@@oooXXXoooXXX.......      ",
"       .......XXXoooXXXoooXXX@@@XXXoooXXXoooXXX.......      ",
"       .......XXXoooXXXoooXXX@@@XXXoooXXXoooXXX.......      ",
"       .......XXXoooXXXoooXXXoooXXXoooXXXoooXXX.......      ",
"       .......XXXoooXXXoooXXXoooXXXoooXXXoooXXX.......      ",
"       .......XXXoooXXXoooXXXoooXXXoooXXXoooXXX.......      ",
"       .......XXXoooXXXoooXXXoooXXXoooXXXoooXXX.......      ",
"       .......XXXoooXXXoooXXXoooXXXoooXXXoooXXX.......      ",
"       .......XXXoooXXXoooXXXoooXXXoooXXXoooXXX.......      ",
"       .......XXXoooXXXoooXXXoooXXXoooXXXoooXXX.......      ",
"       .......XXXoooXXXoooXXXoooXXXoooXXXoooXXX.......      ",
"       ..OOOO...................................OOOO..      ",
"       ..OOOO...................................OOOO..      ",
"       ..OOOO...................................OOOO..      ",
"       ...............................................      ",
"       ...............................................      ",
"                                                            ",
"                                                            "
};
