/* XPM */
static char *d63d86ca93584c15b60facaf410260fa3ld9PKnXUPJLG8iV[] = {
/* columns rows colors chars-per-pixel */
"60 60 56 1 ",
"  c None",
". c #8D615A",
"X c #8E605B",
"o c #8E615B",
"O c #93675F",
"+ c #AC775B",
"@ c #AF785A",
"# c #AF795A",
"$ c #AF795B",
"% c #9A7367",
"& c #9E796B",
"* c #A47C6D",
"= c #B38061",
"- c #A68473",
"; c #A68574",
": c #BF9774",
"> c #CBAE87",
", c #CDB28A",
"< c #CFB68E",
"1 c #DBCDA1",
"2 c #DCCFA3",
"3 c #E1C9A1",
"4 c #E7D0A6",
"5 c #E7D1A7",
"6 c #E7D3A8",
"7 c #E8D4A9",
"8 c #E8D8AC",
"9 c #E9D9AC",
"0 c #E9DBAE",
"q c #E7E4B4",
"w c #EBE2B3",
"e c #ECE7B7",
"r c #E8EABA",
"t c #EDEBBA",
"y c #EEEFBD",
"u c #F3E2C1",
"i c #F3E3C1",
"p c #F4E1C1",
"a c #F4E4C5",
"s c #F1EAC1",
"d c #F1EBC1",
"f c #EFF2C1",
"g c #EFF3C1",
"h c #EFF4C1",
"j c #EFF4C2",
"k c #EFF4C3",
"l c #EFF4C5",
"z c #F0F5CA",
"x c #F4EED4",
"c c #F4EFD6",
"v c #F2F7D4",
"b c #F3F9DE",
"n c #F4F9E3",
"m c #F4F9E5",
"M c #F4FAE5",
"N c #F5FBE8",
/* pixels */
"                                                            ",
"                                                            ",
"                                                            ",
"                                                            ",
"                                                            ",
"                                                            ",
"                                                            ",
"                                                            ",
"                       $$$$$$$$$$$$$$                       ",
"                       $$$$$$$$$$$$$$                       ",
"                       $$$$$$$$$$$$$$                       ",
"                   $$$$qqqqqqqqqqqqqq,$$$                   ",
"                   $$$$hhhhhhhhhhhhhh<$$$                   ",
"                   $$$$hhhhhhhhhhhhhh<$$$                   ",
"                   $$$$hhhhhhhhhhhhhh<$$$                   ",
"                $$$1hhhhhhipppNNNmhhhhhhh%ooo               ",
"                $$$1hhhhhhipppNNNmhhhhhhh%ooo               ",
"                $$$1hhhhhhipppNNNmhhhhhhh%ooo               ",
"                ===2hhhhhhipppmmmnhhhhhhh&OOO               ",
"            $$$:hhhhhhvNNNappppppihhhhhhh7444oooo           ",
"            $$$:hhhhhhvNNNappppppihhhhhhh7444oooo           ",
"            $$$:hhhhhhvNNNappppppihhhhhhh7444oooo           ",
"            $$$:hhhvvvbNNNxxxxsssshhhhhhh7444oooo           ",
"            $$$:hhhNNNNNNNNNNNhhhhhhhhhhh7444oooo           ",
"            $$$:hhhNNNNNNNNNNNhhhhhhhhhhh7444oooo           ",
"        $$$$:::>hhhNNNNNNNNNNNhhhhhhhhhhh7444****           ",
"        $$$$hhhhhhfaaaxNNNzlllhhhhhhhhhhh74444443ooo        ",
"        $$$$hhhhhhfpppxNNNlhhhhhhhhhhhhhh74444443ooo        ",
"        ++++hhhhhhfpppxNNNlhhhhhhhhhhhhhh74444443ooo        ",
"        oooohhhhhhfpppxNNNlhhhhhhhhhhhhhh74444443ooo        ",
"        oooohhhhhhhhhhhhhhhhhhhhhhhhhyttt64444443ooo        ",
"        oooohhhhhhhhhhhhhhhhhhhhhhhhhw44444444443ooo        ",
"        oooohhhhhhhhhhhhhhhhhhhhhhhhhw44444444443ooo        ",
"        oooohhhhhhhhhhhhhhhhhhhhhhhhhw44444444443ooo        ",
"        oooohhhhhhhhhhhhhhhhhhhhhhhhhw44444444443ooo        ",
"        oooohhhhhhhhhhhhhhhhhhhhhhhhhw44444444443ooo        ",
"        oooohhhhhhhhhhhhhhhhhhhhhhhhhw44444444443ooo        ",
"        oooohhhhhhhhhhhhhhhhhhhhhheww844444444443ooo        ",
"        oooohhhhhhhhhhhhhhhhhhhhhh844444444444443ooo        ",
"        oooohhhhhhhhhhhhhhhhhhhhhh844444444444443ooo        ",
"        oooohhhhhhhhhhhhhhhhhhhhhh844444444444443ooo        ",
"        oooohhhhhhhhhhhhhhhhhhh877444444444444443ooo        ",
"        oooohhhhhhhhhhhhhhhhhhh744444444444444443ooo        ",
"        oooohhhhhhhhhhhhhhhhhhh744444444444444443ooo        ",
"        oooohhhhhhhhhhhhhhhhhhh744444444444444443ooo        ",
"            ooo;hhhhhhhhhhhh44444444444444444oooo           ",
"            ooo;hhhhhhhhhhhh44444444444444444oooo           ",
"            ooo;hhhhhhhhhhhh44444444444444444oooo           ",
"            ooo-rrrrrrrrrrrr33333333333333333oooo           ",
"                ooooooooooooooooooooooooooooo               ",
"                ooooooooooooooooooooooooooooo               ",
"                ooooooooooooooooooooooooooooo               ",
"                                                            ",
"                                                            ",
"                                                            ",
"                                                            ",
"                                                            ",
"                                                            ",
"                                                            ",
"                                                            "
};
