/* XPM */
static char *_40737ff23ce42b3c868b0355e9a685aYf8FUlU33Yeb26Ix[] = {
/* columns rows colors chars-per-pixel */
"33 60 6 1 ",
"  c None",
". c #A87759",
"X c #B5875E",
"o c #B58962",
"O c #C2996C",
"+ c #E6CDA5",
/* pixels */
"       XXXXXXXXXXXXXXXXXXX       ",
"       XXXXXXXXXXXXXXXXXXX       ",
"       XXXXXXXXXXXXXXXXXXX       ",
"       XXXXXXXXXXXXXXXXXXX       ",
"       XXXXXXXXXXXXXXXXXXX       ",
"XXXXXXX+++++++++++++++++++XXXXXXX",
"XXXXXXX+++++++++++++++++++XXXXXXX",
"XXXXXXX+++++++++++++++++++XXXXXXX",
"XXXXXXX+++++++++++++++++++XXXXXXX",
"XXXXXXX+++++++++++++++++++XXXXXXX",
"XXXXXXX+++++++++++++++++++XXXXXXX",
"XXXXXXX+++++++++++++++++++XXXXXXX",
"XXXXXXX+++++++++++++++++++XXXXXXX",
"XXXXXXX+++++++++++++++++++XXXXXXX",
"XXXXXXX+++++++++++++++++++XXXXXXX",
"XXXXXXX+++++++++++++++++++XXXXXXX",
"XXXXXXX+++++++++++++++++++XXXXXXX",
"XXXXXXX+++++++++++++++++++XXXXXXX",
"XXXXXXX+++++++++++++++++++XXXXXXX",
"XXXXXXX+++++++++++++++++++XXXXXXX",
"XXXXXXX+++++++++++++++++++XXXXXXX",
".......OOOOO+++++++++OOOOO.......",
".......OOOOO+++++++++OOOOO.......",
".......OOOOO+++++++++OOOOO.......",
".......OOOOO+++++++++OOOOO.......",
".......OOOOO+++++++++OOOOO.......",
".......OOOOOOOOOOOOOOOOOOO.......",
".......OOOOOOOOOOOOOOOOOOO.......",
".......OOOOOOOOOOOOOOOOOOO.......",
".......OOOOOOOOOOOOOOOOOOO.......",
".......OOOOOOOOOOOOOOOOOOO.......",
".......OOOOOOOOOOOOOOOOOOO.......",
".......OOOOOOOOOOOOOOOOOOO.......",
".......OOOOOOOOOOOOOOOOOOO.......",
".......OOOOOOOOOOOOOOOOOOO.......",
".......OOOOOOOOOOOOOOOOOOO.......",
".......OOOOOOOOOOOOOOOOOOO.......",
".......OOOOOOOOOOOOOOOOOOO.......",
".......OOOOOOOOOOOOOOOOOOO.......",
".......OOOOOOOOOOOOOOOOOOO.......",
".......OOOOOOOOOOOOOOOOOOO.......",
".......OOOOOOOOOOOOOOOOOOO.......",
".......OOOOOOOOOOOOOOOOOOO.......",
".......OOOOOOOOOOOOOOOOOOO.......",
".......oooooOOOOOOOOOooooo.......",
".......oooooOOOOOOOOOooooo.......",
".......oooooOOOOOOOOOooooo.......",
".......oooooOOOOOOOOOooooo.......",
".......oooooOOOOOOOOOooooo.......",
".......ooooooooooooooooooo.......",
".......ooooooooooooooooooo.......",
".......ooooooooooooooooooo.......",
".......ooooooooooooooooooo.......",
".......ooooooooooooooooooo.......",
"       ooooooooooooooooooo       ",
"       ooooooooooooooooooo       ",
"       ooooooooooooooooooo       ",
"       ooooooooooooooooooo       ",
"       ooooooooooooooooooo       ",
"       ooooooooooooooooooo       "
};
