/* XPM */
static char *a3112701ded24ebbe1f7d2ca782ce142bsu9gWWxerfxzFWo[] = {
/* columns rows colors chars-per-pixel */
"60 60 33 1 ",
"  c None",
". c #7C435D",
"X c #8A525C",
"o c #965E58",
"O c #98615B",
"+ c #99625B",
"@ c #9A645A",
"# c #9B645A",
"$ c #9B645B",
"% c #9E675A",
"& c #98615C",
"* c #98625E",
"= c #9E675C",
"- c #9D675E",
"; c #A16A59",
": c #A77057",
"> c #AA7455",
", c #AB7455",
"< c #AD7655",
"1 c #AA755D",
"2 c #AC775E",
"3 c #B07A54",
"4 c #B6825A",
"5 c #B18470",
"6 c #B68B75",
"7 c #C5935F",
"8 c #C99760",
"9 c #C2956B",
"0 c #C59A70",
"q c #D7B079",
"w c #DDBA84",
"e c #E0BF88",
"r c #EAD19F",
/* pixels */
"    ......                                        ......    ",
"    ......                                        ......    ",
"    ......                                        ......    ",
"    ------                                        ------    ",
"....888888....                                ....888888....",
"....888888....                                ....888888....",
"....888888....    ........................    ....888888....",
"....888888....    ........................    ....888888....",
"....888888....    ........................    ....888888....",
"....888888....    ........................    ....888888....",
"....888888....    ************************    ....888888....",
"....888888........888888888888888888888888........888888....",
"....888888........888888888888888888888888........888888....",
"....888888........888888888888888888888888........888888....",
"....888888........888888888888888888888888........888888....",
"....qqqqqq....22221111111111111111111111112222....qqqqqq....",
"....eeeeee....8888**************OOO***OOOO7788....eeeeee....",
"....eeeeee....8888******OO*O****OOO***O*OO7788....eeeeee....",
"....eeeeee....8888****OOOOOOOO**OOO*******8888....eeeeee....",
"....wwwwww....7777*****OOOOOOO**OO********7777....wwwwww....",
"....444444....%%--****OOOOO*OOOO****OO****%%%%....444444....",
"....333333....OOO*****OOOOO*OO*O****O*****OOOO....333333....",
"....333333....**OO***::::O*********::::****O**....333333....",
"....333333....**OO***3333O*******OO3333****O**....333333....",
"....333333....**OO***3333***O**O***3333*OOOO**....333333....",
"....<<<<<<....**O****3333***O*OOOO*3333*OOO***....<<<<<<....",
"....******....**O****3333*****OOOOO3333*OO****....******....",
"....******....**OO***3333****OOOOOO3333*OO****....******....",
"....******....OOOOO**3333*OO*******3333O******....******....",
"....**O***....OOOO***3333**O*******3333O******....****OO....",
"....;;;;;;....*******3333*OOOO*****3333O******....;;;;;;....",
"....333333....*******3333*OOOO*****3333OO*****....333333....",
"....333333....*******3333********OO3333***OOOO....333333....",
"....333333....******O3333*********O3333***OOOO....333333....",
"....333333....****OOO3333*****OOOOO3333*******....333333....",
"....333333....****OOO3333*****OO*OO3333*******....333333....",
"....333333....OOOOOO*3333O****OO**O3333*******....333333....",
"....333333....*OO**O*3333O****OO***9999555****....333333....",
"....333333....*******3333OO****O***rrrrrrr**OO....333333....",
"....333333....*******3333OO***OO***rrrrrrr***O....333333....",
"....333333....*******3333**O*******rrrrrrr****....333333....",
"....%%%%%%....*******3333**OO******rrrrrrr****....%%%%%%....",
"....******....****OOO3333*OOOO*****0000666**OO....******....",
"....O*****....***OOOO3333*OOOO*****3333*O***OO....******....",
"....******....OOOOOOO3333***OO****O3333*O***O*....******....",
"....$$$$$$....OO**OO*3333*OOOO**O*O3333*O*****....$$$$$$....",
"....333333....*******3333***OOOO*OO3333OOO****....333333....",
"....333333....*******3333***OOO**OO3333OOO****....333333....",
"....333333....****OOO3333OOOOO****O3333O*****O....333333....",
"....333333....****OOO3333*OO******O3333*****OO....333333....",
"....333333....***OOO*3333**********3333****OOO....333333....",
"....333333....****OO*,,,,**********,,,,****OOO....333333....",
"....333333....**OOO**O$$$*******OOO$$$O*OOOO**....333333....",
"....333333....**OOO**OOOOO******OOOOOOO*OOOO**....333333....",
"....333333....**OO**O***OOOO****OO*O*****O****....333333....",
"....333333....**O*******OOOOO****O************....333333....",
"    oooooo....XXXXXXXXXXXXXXXXXXXXXXXXXXXXXXXX....oooooo    ",
"    ....................................................    ",
"    ....................................................    ",
"    ....................................................    "
};
