/* XPM */
static char *c94505ee89a145d4dd1c25c566ff4a082171JjR4y2YkGJe4[] = {
/* columns rows colors chars-per-pixel */
"60 60 9 1 ",
"  c None",
". c #7D405D",
"X c #8F585C",
"o c #96615C",
"O c #B07552",
"+ c #B17652",
"@ c #B27752",
"# c #CA9966",
"$ c #E1BB84",
/* pixels */
"    .......    ........                          .......    ",
"    .......    ........                          .......    ",
"    .......    ........                          .......    ",
"....#######....####....                      ....#######....",
"....#######....####....                      ....#######....",
"....#######....####....                      ....#######....",
"....#######....####....                      ....#######....",
"....#######....####....                      ....#######....",
"....#######....####....                      ....#######....",
"....#######....####....                      ....#######....",
"....#######....####....                      ....#######....",
"....#######....####....                      ....#######....",
"....#######....oooo....                      ....#######....",
"....#######....oooo....                      ....#######....",
"....#######....oooo....                      ....#######....",
"....#######....oooo....                      ....#######....",
"....$$$$$$$....oooo....                      ....$$$$$$$....",
"....$$$$$$$....oooo....                      ....$$$$$$$....",
"....$$$$$$$....oooo....                      ....$$$$$$$....",
"....$$$$$$$....oooo....                      ....$$$$$$$....",
"....@@@@@@@....oooo....                      ....@@@@@@@....",
"....@@@@@@@....oooo....                      ....@@@@@@@....",
"....@@@@@@@....oooo....                      ....@@@@@@@....",
"....@@@@@@@....oooo....                      ....@@@@@@@....",
"....@@@@@@@....oooo....                      ....@@@@@@@....",
"....@@@@@@@....oooo....                      ....@@@@@@@....",
"....ooooooo....oooo....                      ....ooooooo....",
"....ooooooo....oooo....                      ....ooooooo....",
"....ooooooo....oooo....                      ....ooooooo....",
"....ooooooo....oooo....                      ....ooooooo....",
"....@@@@@@@....oooo....                      ....@@@@@@@....",
"....@@@@@@@....oooo....                      ....@@@@@@@....",
"....@@@@@@@....oooo....                      ....@@@@@@@....",
"....@@@@@@@....oooo....                      ....@@@@@@@....",
"....@@@@@@@....oooo....                      ....@@@@@@@....",
"....@@@@@@@....oooo....                      ....@@@@@@@....",
"....@@@@@@@....oooo....                      ....@@@@@@@....",
"....@@@@@@@....oooo....                      ....@@@@@@@....",
"....@@@@@@@....oooo....                      ....@@@@@@@....",
"....@@@@@@@....oooo....                      ....@@@@@@@....",
"....@@@@@@@....oooo....                      ....@@@@@@@....",
"....ooooooo....oooo....                      ....ooooooo....",
"....ooooooo....oooo....                      ....ooooooo....",
"....ooooooo....oooo....                      ....ooooooo....",
"....ooooooo....oooo....                      ....ooooooo....",
"....@@@@@@@....oooo....                      ....ooooooo....",
"....@@@@@@@....oooo....                      ....@@@@@@@....",
"....@@@@@@@....oooo....                      ....@@@@@@@....",
"....@@@@@@@....oooo....                      ....@@@@@@@....",
"....@@@@@@@....oooo....                      ....@@@@@@@....",
"....@@@@@@@....oooo....                      ....@@@@@@@....",
"....@@@@@@@....XXXX....                      ....@@@@@@@....",
"....@@@@@@@............                      ....@@@@@@@....",
"....@@@@@@@............                      ....@@@@@@@....",
"....@@@@@@@............                      ....@@@@@@@....",
"....@@@@@@@............                      ....@@@@@@@....",
"....@@@@@@@............                      ....@@@@@@@....",
"    ..........                               ...........    ",
"    ..........                               ...........    ",
"    ..........                               ...........    "
};
