/* XPM */
static char *_d6ec68ae9814800ef006c311bb709aaTDnSIwgqZ4nwmGeu[] = {
/* columns rows colors chars-per-pixel */
"60 60 6 1 ",
"  c None",
". c #74495F",
"X c #8F655F",
"o c #AA7958",
"O c #C4996C",
"+ c #DCB98A",
/* pixels */
"........    ........                                ........",
"........    ........                                ........",
"........    ........                                ........",
"........    ........                                ........",
"OOOOOOOO....OOOO....                            ....OOOOOOOO",
"OOOOOOOO....OOOO....                            ....OOOOOOOO",
"OOOOOOOO....OOOO....                            ....OOOOOOOO",
"OOOOOOOO....OOOO....                            ....OOOOOOOO",
"OOOOOOOO....OOOO....                            ....OOOOOOOO",
"OOOOOOOO....OOOO....                            ....OOOOOOOO",
"OOOOOOOO....OOOO....                            ....OOOOOOOO",
"OOOOOOOO....XXXX....                            ....OOOOOOOO",
"OOOOOOOO....XXXX....                            ....OOOOOOOO",
"OOOOOOOO....XXXX....                            ....OOOOOOOO",
"OOOOOOOO....XXXX....                            ....OOOOOOOO",
"++++++++....XXXX....                            ....++++++++",
"++++++++....XXXX....                            ....++++++++",
"++++++++....XXXX....                            ....++++++++",
"++++++++....XXXX....                            ....++++++++",
"oooooooo....XXXX....                            ....oooooooo",
"oooooooo....XXXX....                            ....oooooooo",
"oooooooo....XXXX....                            ....oooooooo",
"oooooooo....XXXX....                            ....oooooooo",
"oooooooo....XXXX....                            ....oooooooo",
"oooooooo....XXXX....                            ....oooooooo",
"oooooooo....XXXX....                            ....oooooooo",
"XXXXXXXX....XXXX....                            ....XXXXXXXX",
"XXXXXXXX....XXXX....                            ....XXXXXXXX",
"XXXXXXXX....XXXX....                            ....XXXXXXXX",
"XXXXXXXX....XXXX....                            ....XXXXXXXX",
"oooooooo....XXXX....                            ....oooooooo",
"oooooooo....XXXX....                            ....oooooooo",
"oooooooo....XXXX....                            ....oooooooo",
"oooooooo....XXXX....                            ....oooooooo",
"oooooooo....XXXX....                            ....oooooooo",
"oooooooo....XXXX....                            ....oooooooo",
"oooooooo....XXXX....                            ....oooooooo",
"oooooooo....XXXX....                            ....oooooooo",
"oooooooo....XXXX....                            ....oooooooo",
"oooooooo....XXXX....                            ....oooooooo",
"oooooooo....XXXX....                            ....oooooooo",
"XXXXXXXX....XXXX....                            ....XXXXXXXX",
"XXXXXXXX....XXXX....                            ....XXXXXXXX",
"XXXXXXXX....XXXX....                            ....XXXXXXXX",
"XXXXXXXX....XXXX....                            ....XXXXXXXX",
"oooooooo....XXXX....                            ....oooooooo",
"oooooooo....XXXX....                            ....oooooooo",
"oooooooo....XXXX....                            ....oooooooo",
"oooooooo....XXXX....                            ....oooooooo",
"oooooooo....XXXX....                            ....oooooooo",
"oooooooo....XXXX....                            ....oooooooo",
"oooooooo....XXXX....                            ....oooooooo",
"oooooooo............                            ....oooooooo",
"oooooooo............                            ....oooooooo",
"oooooooo............                            ....oooooooo",
"oooooooo............                            ....oooooooo",
"............                                    ............",
"............                                    ............",
"............                                    ............",
"............                                    ............"
};
