/* XPM */
static char *_56dc16ee5884ef29aeb49cd3faa6833VWdBjOjUtRNlabE7[] = {
/* columns rows colors chars-per-pixel */
"60 60 8 1 ",
"  c None",
". c #754C61",
"X c #90625D",
"o c #C49A6D",
"O c #D5C268",
"+ c #C57F84",
"@ c #E9D3A6",
"# c #EFF9BD",
/* pixels */
"                  XXXXXXXXXXXXX                             ",
"                  XXXXXXXXXXXXX                             ",
"                  XXXXXXXXXXXXX                             ",
"                  XXXXXXXXXXXXX                             ",
"           XXXXXXX+++++++++++++XXXXXXX                      ",
"           XXXXXXX+++++++++++++XXXXXXX                      ",
"           XXXXXXX+++++++++++++XXXXXXX                      ",
"           XXXXXXX+++++++++++++XXXXXXX                      ",
"           XXXXXXX+++++++++++++XXXXXXX                      ",
"           XXXXXXX+++++++++++++XXXXXXX                      ",
"           XXXXXXX+++++++++++++XXXXXXX                      ",
"    XXXXXXX###########################XXXXXXX               ",
"    XXXXXXX###########################XXXXXXX               ",
"    XXXXXXX###########################XXXXXXX               ",
"    XXXXXXX###########################XXXXXXX               ",
"    XXXXXXX###########################XXXXXXX               ",
"    XXXXXXX###########################XXXXXXX               ",
"    XXXXXXX###########################XXXXXXX               ",
"XXXX#######......########......##############XXXX           ",
"XXXX#######......########......##############XXXX           ",
"XXXX#######......########......##############XXXX           ",
"XXXX#######......########......##############XXXX           ",
"XXXX#######......########......##############XXXX           ",
"XXXX#######......########......##############XXXX           ",
"XXXX#######OOOOOOOOOOOO######################XXXX           ",
"XXXX#######OOOOOOOOOOOO##########################XXXXXXX    ",
"XXXX#######OOOOOOOOOOOO##########################XXXXXXX    ",
"XXXX#######OOOOOOOOOOOO##########################XXXXXXX    ",
"XXXX#######OOOOOOOOOOOO##########################XXXXXXX    ",
"XXXX#######OOOOOOOOOOOO##########################XXXXXXX    ",
"XXXX#############################################XXXXXXX    ",
"XXXX#############################################XXXXXXX    ",
"XXXX####################################################XXXX",
"XXXX####################################################XXXX",
"XXXX####################################################XXXX",
"XXXX######################oooooooo######################XXXX",
"XXXX######################oooooooo######################XXXX",
"XXXX@@@@@@@###############oooooooo###############@@@@@@@XXXX",
"XXXX@@@@@@@###############oooooooo###############@@@@@@@XXXX",
"XXXX@@@@@@@###############oooooooo###############@@@@@@@XXXX",
"XXXX@@@@@@@###############oooooooo###############@@@@@@@XXXX",
"XXXX@@@@@@@###############oooooooo###############@@@@@@@XXXX",
"    XXXXXXX@@@@@@@@@@@@@@@@@@@@@@@oooooooooooooooXXXXXXX    ",
"    XXXXXXX@@@@@@@@@@@@@@@@@@@@@@@oooooooooooooooXXXXXXX    ",
"    XXXXXXX@@@@@@@@@@@@@@@@@@@@@@@oooooooooooooooXXXXXXX    ",
"    XXXXXXX@@@@@@@@@@@@@@@@@@@@@@@oooooooooooooooXXXXXXX    ",
"    XXXXXXX@@@@@@@@@@@@@@@@@@@@@@@oooooooooooooooXXXXXXX    ",
"    XXXXXXX@@@@@@@@@@@@@@@@@@@@@@@oooooooooooooooXXXXXXX    ",
"    XXXXXXX@@@@@@@@@@@@@@@@@@@@@@@oooooooooooooooXXXXXXX    ",
"           XXXXXXXOOOOOOOOXXXXXXXXOOOOOOOOXXXXXXX           ",
"           XXXXXXXOOOOOOOOXXXXXXXXOOOOOOOOXXXXXXX           ",
"           XXXXXXXOOOOOOOOXXXXXXXXOOOOOOOOXXXXXXX           ",
"           XXXXXXXOOOOOOOOXXXXXXXXOOOOOOOOXXXXXXX           ",
"           XXXXXXXOOOOOOOOXXXXXXXXOOOOOOOOXXXXXXX           ",
"           XXXXXXXOOOOOOOOXXXXXXXXOOOOOOOOXXXXXXX           ",
"           XXXXXXXOOOOOOOOXXXXXXXXOOOOOOOOXXXXXXX           ",
"                  XXXXXXXX        XXXXXXXX                  ",
"                  XXXXXXXX        XXXXXXXX                  ",
"                  XXXXXXXX        XXXXXXXX                  ",
"                  XXXXXXXX        XXXXXXXX                  "
};
